<svg xmlns="http://www.w3.org/2000/svg" viewBox="0 0 280 40" fill="none">
  <!-- Oak leaf icon -->
  <g transform="translate(0, 4)">
    <path d="M16 0C16 0 12 6 12 12C12 15 13 17 14.5 18.5C12.5 18 10 16.5 8 14C8 14 7 18 10 22C11.5 23.5 13.5 24.5 15 25L14.5 32H17.5L17 25C18.5 24.5 20.5 23.5 22 22C25 18 24 14 24 14C22 16.5 19.5 18 17.5 18.5C19 17 20 15 20 12C20 6 16 0 16 0Z" fill="#1B6B6D"/>
    <line x1="16" y1="12" x2="16" y2="32" stroke="#1B6B6D" stroke-width="1.5" opacity="0.3"/>
  </g>
  <!-- Oakwell text -->
  <text x="40" y="24" font-family="Lora, serif" font-weight="700" font-size="24" fill="#0E4446">Oakwell</text>
  <!-- Partners text -->
  <text x="148" y="24" font-family="Source Sans 3, sans-serif" font-weight="300" font-size="20" fill="#666666">Partners</text>
</svg>
