<svg xmlns="http://www.w3.org/2000/svg" viewBox="0 0 280 40" fill="none">
  <!-- Oak leaf icon -->
  <g transform="translate(20, 4) scale(0.6)">
    <path d="M16 0C16 0 12 6 12 12C12 15 13 17 14.5 18.5C12.5 18 10 16.5 8 14C8 14 7 18 10 22C11.5 23.5 13.5 24.5 15 25L14.5 32H17.5L17 25C18.5 24.5 20.5 23.5 22 22C25 18 24 14 24 14C22 16.5 19.5 18 17.5 18.5C19 17 20 15 20 12C20 6 16 0 16 0Z" fill="#1B6B6D"/>
    <line x1="16" y1="12" x2="16" y2="32" stroke="#1B6B6D" stroke-width="1.5" opacity="0.3"/>
  </g>
  <!-- Oakwell text (Lora Bold, converted to paths) -->
  <path d="M49.19 24.38L49.19 24.38Q46.91 24.38 45.32 23.62Q43.72 22.85 42.74 21.56Q41.75 20.28 41.30 18.72Q40.84 17.16 40.84 15.60L40.84 15.60Q40.84 14.09 41.36 12.54Q41.87 10.99 42.92 9.70Q43.96 8.40 45.54 7.61Q47.13 6.82 49.26 6.82L49.26 6.82Q51.45 6.82 53.03 7.61Q54.62 8.40 55.62 9.71Q56.63 11.02 57.12 12.55Q57.62 14.09 57.62 15.60L57.62 15.60Q57.62 17.09 57.10 18.62Q56.58 20.16 55.54 21.47Q54.50 22.78 52.91 23.58Q51.33 24.38 49.19 24.38ZM49.46 22.63L49.46 22.63Q50.70 22.63 51.54 22.02Q52.38 21.41 52.89 20.42Q53.39 19.44 53.61 18.28Q53.82 17.11 53.82 16.01L53.82 16.01Q53.82 14.35 53.54 12.98Q53.25 11.62 52.65 10.62Q52.05 9.62 51.12 9.08Q50.20 8.54 48.95 8.57L48.95 8.57Q47.73 8.59 46.89 9.23Q46.05 9.86 45.54 10.86Q45.04 11.86 44.82 13.03Q44.61 14.21 44.61 15.31L44.61 15.31Q44.61 16.44 44.86 17.71Q45.11 18.98 45.66 20.11Q46.22 21.24 47.15 21.94Q48.09 22.63 49.46 22.63ZM70.65 24L66.11 24Q66.06 23.66 66.05 23.44Q66.04 23.21 66.02 22.90L66.02 22.90Q65.20 23.71 64.29 24.05Q63.38 24.38 62.44 24.38L62.44 24.38Q60.90 24.38 60.04 23.47Q59.18 22.56 59.18 21.19L59.18 21.19Q59.18 20.04 59.76 19.22Q60.35 18.41 61.32 17.89Q62.30 17.38 63.48 17.10Q64.67 16.82 65.87 16.78L65.87 16.78L65.87 15.53Q65.87 14.90 65.72 14.40Q65.56 13.90 65.19 13.61Q64.82 13.32 64.14 13.34L64.14 13.34Q63.69 13.37 63.26 13.54Q62.82 13.70 62.51 14.02L62.51 14.02Q62.70 14.23 62.75 14.48Q62.80 14.74 62.80 14.93L62.80 14.93Q62.80 15.41 62.42 15.92Q62.03 16.44 61.19 16.42L61.19 16.42Q60.47 16.39 60.09 15.91Q59.70 15.43 59.70 14.78L59.70 14.78Q59.70 13.82 60.39 13.12Q61.07 12.41 62.22 12.01Q63.38 11.62 64.77 11.62L64.77 11.62Q66.88 11.62 68.04 12.71Q69.21 13.80 69.21 16.20L69.21 16.20Q69.21 17.02 69.21 17.59Q69.21 18.17 69.20 18.74Q69.18 19.32 69.18 20.14L69.18 20.14Q69.18 20.47 69.16 21.08Q69.14 21.70 69.09 22.25L69.09 22.25Q69.50 22.20 69.95 22.19Q70.41 22.18 70.65 22.18L70.65 22.18L70.65 24ZM65.85 18.48L65.85 18.48Q65.18 18.55 64.58 18.72Q63.98 18.89 63.53 19.18Q63.09 19.46 62.84 19.87Q62.58 20.28 62.58 20.78L62.58 20.78Q62.61 21.46 63.02 21.74Q63.42 22.03 63.95 22.03L63.95 22.03Q64.50 22.03 64.98 21.79Q65.46 21.55 65.85 21.17L65.85 21.17Q65.85 20.93 65.85 20.70Q65.85 20.47 65.85 20.23L65.85 20.23Q65.85 19.80 65.85 19.36Q65.85 18.91 65.85 18.48ZM77.94 24L71.63 24L71.63 22.44Q72.30 22.44 72.60 22.18Q72.90 21.91 72.99 21.42Q73.07 20.93 73.07 20.30L73.07 20.30L73.07 10.44Q73.07 10.01 73.10 9.44Q73.12 8.88 73.17 8.35L73.17 8.35Q72.78 8.38 72.27 8.39Q71.75 8.40 71.49 8.42L71.49 8.42L71.49 6.60Q72.59 6.60 73.35 6.48Q74.10 6.36 74.56 6.19Q75.02 6.02 75.16 5.88L75.16 5.88L76.48 5.88L76.48 16.82L77.63 16.82L79.36 14.83Q79.67 14.50 79.88 14.26Q80.08 14.02 80.30 13.82L80.30 13.82L79.02 13.82L79.02 12L84.42 12L84.42 13.54Q83.58 13.63 82.94 13.93Q82.29 14.23 81.82 14.64Q81.35 15.05 81.02 15.43L81.02 15.43L79.48 17.16Q79.84 17.33 80.19 17.65Q80.54 17.98 81.04 18.65L81.04 18.65L82.65 20.76Q82.79 20.93 83.02 21.22Q83.25 21.50 83.54 21.78Q83.82 22.06 84.16 22.25Q84.50 22.44 84.86 22.44L84.86 22.44L84.86 24L82.10 24Q81.33 24 80.75 23.46Q80.18 22.92 79.43 21.91L79.43 21.91Q79.00 21.34 78.53 20.68Q78.06 20.02 77.67 19.43Q77.27 18.84 77.03 18.50L77.03 18.50L76.48 18.53L76.48 20.14Q76.48 20.47 76.46 21.08Q76.43 21.70 76.38 22.25L76.38 22.25Q76.77 22.20 77.22 22.19Q77.68 22.18 77.94 22.18L77.94 22.18L77.94 24ZM92.30 24.07L89.92 24.07L87.02 15.74Q86.80 15.12 86.69 14.81Q86.58 14.50 86.54 14.28Q86.49 14.06 86.42 13.78L86.42 13.78L85.48 13.82L85.48 12L91.24 12L91.24 13.54Q90.50 13.56 90.38 14.11Q90.26 14.66 90.45 15.41L90.45 15.41L91.26 18.34Q91.41 18.86 91.54 19.45Q91.67 20.04 91.77 20.62L91.77 20.62Q91.89 20.11 92.02 19.51Q92.15 18.91 92.42 18.02L92.42 18.02L94.17 12L96.78 12L98.70 18.62Q98.85 19.13 99.00 19.72Q99.16 20.30 99.28 20.78L99.28 20.78Q99.38 20.30 99.54 19.73Q99.71 19.15 99.86 18.70L99.86 18.70L100.79 15.65Q100.98 15 101.13 14.58Q101.27 14.16 101.49 13.73L101.49 13.73L100.12 13.82L100.12 12L104.68 12L104.68 13.54Q104.20 13.54 103.84 13.85Q103.48 14.16 103.20 14.60Q102.93 15.05 102.76 15.47Q102.59 15.89 102.52 16.13L102.52 16.13L99.78 24.07L97.24 24.07L95.58 18.96Q95.51 18.70 95.36 18.19Q95.20 17.69 95.04 17.10Q94.89 16.51 94.74 16.01L94.74 16.01Q94.62 16.68 94.38 17.54Q94.14 18.41 93.93 19.13Q93.71 19.85 93.62 20.11L93.62 20.11L92.30 24.07ZM111.42 24.38L111.42 24.38Q109.67 24.38 108.33 23.60Q106.98 22.82 106.24 21.40Q105.50 19.97 105.50 18.02L105.50 18.02Q105.50 16.34 106.24 14.88Q106.98 13.42 108.34 12.52Q109.70 11.62 111.50 11.62L111.50 11.62Q112.50 11.62 113.46 11.89Q114.42 12.17 115.20 12.84Q115.98 13.51 116.45 14.66Q116.92 15.82 116.90 17.54L116.90 17.54L109.02 17.69Q109.02 18.98 109.35 20.02Q109.67 21.05 110.42 21.65Q111.16 22.25 112.41 22.25L112.41 22.25Q112.89 22.25 113.50 22.08Q114.11 21.91 114.75 21.52Q115.38 21.12 115.94 20.45L115.94 20.45L117.02 21.46Q116.15 22.68 115.17 23.32Q114.18 23.95 113.21 24.17Q112.24 24.38 111.42 24.38ZM109.17 16.01L109.17 16.01L113.58 16.01Q113.56 15 113.31 14.41Q113.06 13.82 112.62 13.56Q112.19 13.30 111.62 13.30L111.62 13.30Q110.56 13.30 109.96 14.05Q109.36 14.81 109.17 16.01ZM118.26 24L118.26 22.44Q118.94 22.44 119.24 22.18Q119.54 21.91 119.61 21.42Q119.68 20.93 119.68 20.30L119.68 20.30L119.68 10.44Q119.68 10.01 119.70 9.44Q119.73 8.88 119.78 8.35L119.78 8.35Q119.39 8.38 118.88 8.39Q118.36 8.40 118.10 8.42L118.10 8.42L118.10 6.60Q119.22 6.60 119.98 6.48Q120.74 6.36 121.18 6.19Q121.62 6.02 121.79 5.88L121.79 5.88L123.09 5.88L123.09 20.14Q123.09 20.47 123.06 21.08Q123.04 21.70 122.99 22.25L122.99 22.25Q123.40 22.20 123.86 22.19Q124.31 22.18 124.55 22.18L124.55 22.18L124.55 24L118.26 24ZM125.75 24L125.75 22.44Q126.42 22.44 126.72 22.18Q127.02 21.91 127.10 21.42Q127.17 20.93 127.17 20.30L127.17 20.30L127.17 10.44Q127.17 10.01 127.19 9.44Q127.22 8.88 127.26 8.35L127.26 8.35Q126.88 8.38 126.36 8.39Q125.85 8.40 125.58 8.42L125.58 8.42L125.58 6.60Q126.71 6.60 127.47 6.48Q128.22 6.36 128.67 6.19Q129.11 6.02 129.28 5.88L129.28 5.88L130.58 5.88L130.58 20.14Q130.58 20.47 130.55 21.08Q130.53 21.70 130.48 22.25L130.48 22.25Q130.89 22.20 131.34 22.19Q131.80 22.18 132.04 22.18L132.04 22.18L132.04 24L125.75 24Z" fill="#0E4446"/>
  <!-- Partners text (Lora Bold, scaled to match Oakwell size) -->
  <g transform="translate(139, 24) scale(1.223) translate(-139, -24)">
  <path d="M139 24L139 22.68Q139.46 22.66 139.77 22.56Q140.08 22.46 140.25 22.10Q140.42 21.74 140.42 20.94L140.42 20.94L140.42 13.28Q140.42 12.74 140.45 12.24Q140.48 11.74 140.50 11.48L140.50 11.48Q140.18 11.50 139.70 11.51Q139.22 11.52 139 11.54L139 11.54L139 10Q140.42 9.98 141.84 9.98Q143.26 9.98 144.68 9.96L144.68 9.96Q146.44 9.94 147.75 10.42Q149.06 10.90 149.77 11.90Q150.48 12.90 150.44 14.50L150.44 14.50Q150.42 15.30 150.06 16.07Q149.70 16.84 149 17.47Q148.30 18.10 147.24 18.50Q146.18 18.90 144.76 18.94L144.76 18.94Q144.32 18.96 143.99 18.96Q143.66 18.96 143.32 18.94L143.32 18.94L143.32 20.70Q143.32 21.26 143.30 21.76Q143.28 22.26 143.24 22.52L143.24 22.52Q143.46 22.50 143.80 22.49Q144.14 22.48 144.47 22.47Q144.80 22.46 144.94 22.46L144.94 22.46L144.94 24L139 24ZM143.32 12.94L143.32 17.44Q143.54 17.46 143.76 17.48Q143.98 17.50 144.22 17.50L144.22 17.50Q145.32 17.50 146.01 17.13Q146.70 16.76 147.02 16.05Q147.34 15.34 147.34 14.32L147.34 14.32Q147.34 13.32 147.07 12.72Q146.80 12.12 146.38 11.83Q145.96 11.54 145.50 11.45Q145.04 11.36 144.66 11.36L144.66 11.36Q144.24 11.36 143.94 11.46Q143.64 11.56 143.48 11.90Q143.32 12.24 143.32 12.94L143.32 12.94ZM160.94 24L157.16 24Q157.12 23.72 157.11 23.53Q157.10 23.34 157.08 23.08L157.08 23.08Q156.40 23.76 155.64 24.04Q154.88 24.32 154.10 24.32L154.10 24.32Q152.82 24.32 152.10 23.56Q151.38 22.80 151.38 21.66L151.38 21.66Q151.38 20.70 151.87 20.02Q152.36 19.34 153.17 18.91Q153.98 18.48 154.97 18.25Q155.96 18.02 156.96 17.98L156.96 17.98L156.96 16.94Q156.96 16.42 156.83 16Q156.70 15.58 156.39 15.34Q156.08 15.10 155.52 15.12L155.52 15.12Q155.14 15.14 154.78 15.28Q154.42 15.42 154.16 15.68L154.16 15.68Q154.32 15.86 154.36 16.07Q154.40 16.28 154.40 16.44L154.40 16.44Q154.40 16.84 154.08 17.27Q153.76 17.70 153.06 17.68L153.06 17.68Q152.46 17.66 152.14 17.26Q151.82 16.86 151.82 16.32L151.82 16.32Q151.82 15.52 152.39 14.93Q152.96 14.34 153.92 14.01Q154.88 13.68 156.04 13.68L156.04 13.68Q157.80 13.68 158.77 14.59Q159.74 15.50 159.74 17.50L159.74 17.50Q159.74 18.18 159.74 18.66Q159.74 19.14 159.73 19.62Q159.72 20.10 159.72 20.78L159.72 20.78Q159.72 21.06 159.70 21.57Q159.68 22.08 159.64 22.54L159.64 22.54Q159.98 22.50 160.36 22.49Q160.74 22.48 160.94 22.48L160.94 22.48L160.94 24ZM156.94 19.40L156.94 19.40Q156.38 19.46 155.88 19.60Q155.38 19.74 155.01 19.98Q154.64 20.22 154.43 20.56Q154.22 20.90 154.22 21.32L154.22 21.32Q154.24 21.88 154.58 22.12Q154.92 22.36 155.36 22.36L155.36 22.36Q155.82 22.36 156.22 22.16Q156.62 21.96 156.94 21.64L156.94 21.64Q156.94 21.44 156.94 21.25Q156.94 21.06 156.94 20.86L156.94 20.86Q156.94 20.50 156.94 20.13Q156.94 19.76 156.94 19.40ZM162.08 24L162.08 22.70Q162.64 22.70 162.88 22.48Q163.12 22.26 163.19 21.85Q163.26 21.44 163.26 20.92L163.26 20.92L163.26 17.56Q163.26 17.20 163.28 16.75Q163.30 16.30 163.34 15.86L163.34 15.86Q163.02 15.88 162.59 15.89Q162.16 15.90 161.94 15.92L161.94 15.92L161.94 14.40L162.74 14.40Q163.52 14.40 164.17 14.20Q164.82 14 165.02 13.80L165.02 13.80L166 13.80Q166.04 14 166.06 14.55Q166.08 15.10 166.08 15.52L166.08 15.52Q166.62 14.86 167.10 14.46Q167.58 14.06 168.05 13.87Q168.52 13.68 169 13.68L169 13.68Q169.70 13.68 170.22 14.07Q170.74 14.46 170.74 15.34L170.74 15.34Q170.74 15.64 170.60 15.97Q170.46 16.30 170.16 16.52Q169.86 16.74 169.34 16.74L169.34 16.74Q168.94 16.74 168.52 16.50Q168.10 16.26 168.04 15.58L168.04 15.58Q167.64 15.58 167.24 15.91Q166.84 16.24 166.53 16.69Q166.22 17.14 166.10 17.52L166.10 17.52L166.10 20.78Q166.10 21.06 166.08 21.57Q166.06 22.08 166.02 22.54L166.02 22.54Q166.34 22.50 166.73 22.49Q167.12 22.48 167.32 22.48L167.32 22.48L167.32 24L162.08 24ZM175.64 24.32L175.64 24.32Q175.04 24.32 174.48 24.18Q173.92 24.04 173.48 23.65Q173.04 23.26 172.78 22.50Q172.52 21.74 172.52 20.48L172.52 20.48L172.56 15.66L171.20 15.66L171.20 14Q171.82 13.98 172.40 13.58Q172.98 13.18 173.39 12.54Q173.80 11.90 173.94 11.20L173.94 11.20L175.42 11.20L175.40 14L177.94 14L177.94 15.54L175.40 15.60L175.38 20.52Q175.38 20.98 175.47 21.43Q175.56 21.88 175.82 22.17Q176.08 22.46 176.58 22.46L176.58 22.46Q176.86 22.46 177.35 22.26Q177.84 22.06 178.40 21.26L178.40 21.26L179.36 22.16Q178.82 22.96 178.24 23.40Q177.66 23.84 177.13 24.04Q176.60 24.24 176.20 24.28Q175.80 24.32 175.64 24.32ZM185.18 24L179.94 24L179.94 22.70Q180.50 22.70 180.74 22.48Q180.98 22.26 181.05 21.85Q181.12 21.44 181.12 20.92L181.12 20.92L181.12 17.56Q181.12 17.20 181.14 16.75Q181.16 16.30 181.20 15.86L181.20 15.86Q180.88 15.88 180.45 15.89Q180.02 15.90 179.80 15.92L179.80 15.92L179.80 14.40Q180.72 14.40 181.36 14.30Q182.00 14.20 182.37 14.06Q182.74 13.92 182.88 13.80L182.88 13.80L183.86 13.80Q183.90 14.06 183.90 14.18Q183.90 14.30 183.91 14.41Q183.92 14.52 183.98 14.80L183.98 14.80Q184.38 14.48 184.90 14.23Q185.42 13.98 185.94 13.83Q186.46 13.68 186.86 13.68L186.86 13.68Q188.70 13.68 189.47 14.73Q190.24 15.78 190.24 18.10L190.24 18.10L190.24 20.78Q190.24 21.06 190.22 21.57Q190.20 22.08 190.16 22.54L190.16 22.54Q190.50 22.50 190.88 22.49Q191.26 22.48 191.46 22.48L191.46 22.48L191.46 24L186.22 24L186.22 22.70Q186.78 22.70 187.03 22.48Q187.28 22.26 187.35 21.85Q187.42 21.44 187.42 20.92L187.42 20.92L187.40 18.08Q187.40 16.78 187.03 16.15Q186.66 15.52 185.78 15.52L185.78 15.52Q185.28 15.52 184.79 15.74Q184.30 15.96 183.96 16.26L183.96 16.26Q183.96 16.54 183.96 16.83Q183.96 17.12 183.96 17.40L183.96 17.40L183.96 20.78Q183.96 21.06 183.94 21.57Q183.92 22.08 183.88 22.54L183.88 22.54Q184.20 22.50 184.59 22.49Q184.98 22.48 185.18 22.48L185.18 22.48L185.18 24ZM197.44 24.32L197.44 24.32Q195.98 24.32 194.86 23.67Q193.74 23.02 193.12 21.83Q192.50 20.64 192.50 19.02L192.50 19.02Q192.50 17.62 193.12 16.40Q193.74 15.18 194.87 14.43Q196.00 13.68 197.50 13.68L197.50 13.68Q198.34 13.68 199.14 13.91Q199.94 14.14 200.59 14.70Q201.24 15.26 201.63 16.22Q202.02 17.18 202.00 18.62L202.00 18.62L195.44 18.74Q195.44 19.82 195.71 20.68Q195.98 21.54 196.60 22.04Q197.22 22.54 198.26 22.54L198.26 22.54Q198.66 22.54 199.17 22.40Q199.68 22.26 200.21 21.93Q200.74 21.60 201.20 21.04L201.20 21.04L202.10 21.88Q201.38 22.90 200.56 23.43Q199.74 23.96 198.93 24.14Q198.12 24.32 197.44 24.32ZM195.56 17.34L195.56 17.34L199.24 17.34Q199.22 16.50 199.01 16.01Q198.80 15.52 198.44 15.30Q198.08 15.08 197.60 15.08L197.60 15.08Q196.72 15.08 196.22 15.71Q195.72 16.34 195.56 17.34ZM203.46 24L203.46 22.70Q204.02 22.70 204.26 22.48Q204.50 22.26 204.57 21.85Q204.64 21.44 204.64 20.92L204.64 20.92L204.64 17.56Q204.64 17.20 204.66 16.75Q204.68 16.30 204.72 15.86L204.72 15.86Q204.40 15.88 203.97 15.89Q203.54 15.90 203.32 15.92L203.32 15.92L203.32 14.40L204.12 14.40Q204.90 14.40 205.55 14.20Q206.20 14 206.40 13.80L206.40 13.80L207.38 13.80Q207.42 14 207.44 14.55Q207.46 15.10 207.46 15.52L207.46 15.52Q208.00 14.86 208.48 14.46Q208.96 14.06 209.43 13.87Q209.90 13.68 210.38 13.68L210.38 13.68Q211.08 13.68 211.60 14.07Q212.12 14.46 212.12 15.34L212.12 15.34Q212.12 15.64 211.98 15.97Q211.84 16.30 211.54 16.52Q211.24 16.74 210.72 16.74L210.72 16.74Q210.32 16.74 209.90 16.50Q209.48 16.26 209.42 15.58L209.42 15.58Q209.02 15.58 208.62 15.91Q208.22 16.24 207.91 16.69Q207.60 17.14 207.48 17.52L207.48 17.52L207.48 20.78Q207.48 21.06 207.46 21.57Q207.44 22.08 207.40 22.54L207.40 22.54Q207.72 22.50 208.11 22.49Q208.50 22.48 208.70 22.48L208.70 22.48L208.70 24L203.46 24ZM217.66 24.32L217.66 24.32Q216.80 24.32 215.98 24.10Q215.16 23.88 214.70 23.54L214.70 23.54L214.74 24.14L213.22 24.14L213.14 20.70L214.44 20.70Q214.50 21.30 214.92 21.80Q215.34 22.30 216.02 22.59Q216.70 22.88 217.54 22.88L217.54 22.88Q217.88 22.88 218.19 22.78Q218.50 22.68 218.71 22.45Q218.92 22.22 218.92 21.88L218.92 21.88Q218.92 21.50 218.65 21.26Q218.38 21.02 217.87 20.80Q217.36 20.58 216.60 20.30L216.60 20.30Q215.98 20.06 215.35 19.80Q214.72 19.54 214.19 19.17Q213.66 18.80 213.34 18.25Q213.02 17.70 213.02 16.90L213.02 16.90Q213.02 16.32 213.24 15.75Q213.46 15.18 213.92 14.71Q214.38 14.24 215.09 13.96Q215.80 13.68 216.78 13.68L216.78 13.68Q217.32 13.68 218.01 13.85Q218.70 14.02 219.18 14.36L219.18 14.36L219.18 13.78L220.70 13.78L220.70 17.32L219.40 17.32Q219.28 16.62 218.91 16.12Q218.54 15.62 217.96 15.35Q217.38 15.08 216.66 15.08L216.66 15.08Q216.16 15.08 215.75 15.32Q215.34 15.56 215.34 16.14L215.34 16.14Q215.34 16.60 215.66 16.87Q215.98 17.14 216.54 17.32Q217.10 17.50 217.78 17.74L217.78 17.74Q218.80 18.08 219.59 18.54Q220.38 19 220.84 19.65Q221.30 20.30 221.30 21.24L221.30 21.24Q221.30 22.28 220.78 22.96Q220.26 23.64 219.43 23.98Q218.60 24.32 217.66 24.32Z" fill="#0E4446"/>
  </g>
</svg>
