<svg xmlns="http://www.w3.org/2000/svg" viewBox="0 0 280 40" fill="none">
  <!-- Oak leaf icon -->
  <g transform="translate(0, 4)">
    <path d="M16 0C16 0 12 6 12 12C12 15 13 17 14.5 18.5C12.5 18 10 16.5 8 14C8 14 7 18 10 22C11.5 23.5 13.5 24.5 15 25L14.5 32H17.5L17 25C18.5 24.5 20.5 23.5 22 22C25 18 24 14 24 14C22 16.5 19.5 18 17.5 18.5C19 17 20 15 20 12C20 6 16 0 16 0Z" fill="#1B6B6D"/>
    <line x1="16" y1="12" x2="16" y2="32" stroke="#1B6B6D" stroke-width="1.5" opacity="0.3"/>
  </g>
  <!-- Oakwell text (Lora Bold, converted to paths) -->
  <path d="M49.19 24.38L49.19 24.38Q46.91 24.38 45.32 23.62Q43.72 22.85 42.74 21.56Q41.75 20.28 41.30 18.72Q40.84 17.16 40.84 15.60L40.84 15.60Q40.84 14.09 41.36 12.54Q41.87 10.99 42.92 9.70Q43.96 8.40 45.54 7.61Q47.13 6.82 49.26 6.82L49.26 6.82Q51.45 6.82 53.03 7.61Q54.62 8.40 55.62 9.71Q56.63 11.02 57.12 12.55Q57.62 14.09 57.62 15.60L57.62 15.60Q57.62 17.09 57.10 18.62Q56.58 20.16 55.54 21.47Q54.50 22.78 52.91 23.58Q51.33 24.38 49.19 24.38ZM49.46 22.63L49.46 22.63Q50.70 22.63 51.54 22.02Q52.38 21.41 52.89 20.42Q53.39 19.44 53.61 18.28Q53.82 17.11 53.82 16.01L53.82 16.01Q53.82 14.35 53.54 12.98Q53.25 11.62 52.65 10.62Q52.05 9.62 51.12 9.08Q50.20 8.54 48.95 8.57L48.95 8.57Q47.73 8.59 46.89 9.23Q46.05 9.86 45.54 10.86Q45.04 11.86 44.82 13.03Q44.61 14.21 44.61 15.31L44.61 15.31Q44.61 16.44 44.86 17.71Q45.11 18.98 45.66 20.11Q46.22 21.24 47.15 21.94Q48.09 22.63 49.46 22.63ZM70.65 24L66.11 24Q66.06 23.66 66.05 23.44Q66.04 23.21 66.02 22.90L66.02 22.90Q65.20 23.71 64.29 24.05Q63.38 24.38 62.44 24.38L62.44 24.38Q60.90 24.38 60.04 23.47Q59.18 22.56 59.18 21.19L59.18 21.19Q59.18 20.04 59.76 19.22Q60.35 18.41 61.32 17.89Q62.30 17.38 63.48 17.10Q64.67 16.82 65.87 16.78L65.87 16.78L65.87 15.53Q65.87 14.90 65.72 14.40Q65.56 13.90 65.19 13.61Q64.82 13.32 64.14 13.34L64.14 13.34Q63.69 13.37 63.26 13.54Q62.82 13.70 62.51 14.02L62.51 14.02Q62.70 14.23 62.75 14.48Q62.80 14.74 62.80 14.93L62.80 14.93Q62.80 15.41 62.42 15.92Q62.03 16.44 61.19 16.42L61.19 16.42Q60.47 16.39 60.09 15.91Q59.70 15.43 59.70 14.78L59.70 14.78Q59.70 13.82 60.39 13.12Q61.07 12.41 62.22 12.01Q63.38 11.62 64.77 11.62L64.77 11.62Q66.88 11.62 68.04 12.71Q69.21 13.80 69.21 16.20L69.21 16.20Q69.21 17.02 69.21 17.59Q69.21 18.17 69.20 18.74Q69.18 19.32 69.18 20.14L69.18 20.14Q69.18 20.47 69.16 21.08Q69.14 21.70 69.09 22.25L69.09 22.25Q69.50 22.20 69.95 22.19Q70.41 22.18 70.65 22.18L70.65 22.18L70.65 24ZM65.85 18.48L65.85 18.48Q65.18 18.55 64.58 18.72Q63.98 18.89 63.53 19.18Q63.09 19.46 62.84 19.87Q62.58 20.28 62.58 20.78L62.58 20.78Q62.61 21.46 63.02 21.74Q63.42 22.03 63.95 22.03L63.95 22.03Q64.50 22.03 64.98 21.79Q65.46 21.55 65.85 21.17L65.85 21.17Q65.85 20.93 65.85 20.70Q65.85 20.47 65.85 20.23L65.85 20.23Q65.85 19.80 65.85 19.36Q65.85 18.91 65.85 18.48ZM77.94 24L71.63 24L71.63 22.44Q72.30 22.44 72.60 22.18Q72.90 21.91 72.99 21.42Q73.07 20.93 73.07 20.30L73.07 20.30L73.07 10.44Q73.07 10.01 73.10 9.44Q73.12 8.88 73.17 8.35L73.17 8.35Q72.78 8.38 72.27 8.39Q71.75 8.40 71.49 8.42L71.49 8.42L71.49 6.60Q72.59 6.60 73.35 6.48Q74.10 6.36 74.56 6.19Q75.02 6.02 75.16 5.88L75.16 5.88L76.48 5.88L76.48 16.82L77.63 16.82L79.36 14.83Q79.67 14.50 79.88 14.26Q80.08 14.02 80.30 13.82L80.30 13.82L79.02 13.82L79.02 12L84.42 12L84.42 13.54Q83.58 13.63 82.94 13.93Q82.29 14.23 81.82 14.64Q81.35 15.05 81.02 15.43L81.02 15.43L79.48 17.16Q79.84 17.33 80.19 17.65Q80.54 17.98 81.04 18.65L81.04 18.65L82.65 20.76Q82.79 20.93 83.02 21.22Q83.25 21.50 83.54 21.78Q83.82 22.06 84.16 22.25Q84.50 22.44 84.86 22.44L84.86 22.44L84.86 24L82.10 24Q81.33 24 80.75 23.46Q80.18 22.92 79.43 21.91L79.43 21.91Q79.00 21.34 78.53 20.68Q78.06 20.02 77.67 19.43Q77.27 18.84 77.03 18.50L77.03 18.50L76.48 18.53L76.48 20.14Q76.48 20.47 76.46 21.08Q76.43 21.70 76.38 22.25L76.38 22.25Q76.77 22.20 77.22 22.19Q77.68 22.18 77.94 22.18L77.94 22.18L77.94 24ZM92.30 24.07L89.92 24.07L87.02 15.74Q86.80 15.12 86.69 14.81Q86.58 14.50 86.54 14.28Q86.49 14.06 86.42 13.78L86.42 13.78L85.48 13.82L85.48 12L91.24 12L91.24 13.54Q90.50 13.56 90.38 14.11Q90.26 14.66 90.45 15.41L90.45 15.41L91.26 18.34Q91.41 18.86 91.54 19.45Q91.67 20.04 91.77 20.62L91.77 20.62Q91.89 20.11 92.02 19.51Q92.15 18.91 92.42 18.02L92.42 18.02L94.17 12L96.78 12L98.70 18.62Q98.85 19.13 99.00 19.72Q99.16 20.30 99.28 20.78L99.28 20.78Q99.38 20.30 99.54 19.73Q99.71 19.15 99.86 18.70L99.86 18.70L100.79 15.65Q100.98 15 101.13 14.58Q101.27 14.16 101.49 13.73L101.49 13.73L100.12 13.82L100.12 12L104.68 12L104.68 13.54Q104.20 13.54 103.84 13.85Q103.48 14.16 103.20 14.60Q102.93 15.05 102.76 15.47Q102.59 15.89 102.52 16.13L102.52 16.13L99.78 24.07L97.24 24.07L95.58 18.96Q95.51 18.70 95.36 18.19Q95.20 17.69 95.04 17.10Q94.89 16.51 94.74 16.01L94.74 16.01Q94.62 16.68 94.38 17.54Q94.14 18.41 93.93 19.13Q93.71 19.85 93.62 20.11L93.62 20.11L92.30 24.07ZM111.42 24.38L111.42 24.38Q109.67 24.38 108.33 23.60Q106.98 22.82 106.24 21.40Q105.50 19.97 105.50 18.02L105.50 18.02Q105.50 16.34 106.24 14.88Q106.98 13.42 108.34 12.52Q109.70 11.62 111.50 11.62L111.50 11.62Q112.50 11.62 113.46 11.89Q114.42 12.17 115.20 12.84Q115.98 13.51 116.45 14.66Q116.92 15.82 116.90 17.54L116.90 17.54L109.02 17.69Q109.02 18.98 109.35 20.02Q109.67 21.05 110.42 21.65Q111.16 22.25 112.41 22.25L112.41 22.25Q112.89 22.25 113.50 22.08Q114.11 21.91 114.75 21.52Q115.38 21.12 115.94 20.45L115.94 20.45L117.02 21.46Q116.15 22.68 115.17 23.32Q114.18 23.95 113.21 24.17Q112.24 24.38 111.42 24.38ZM109.17 16.01L109.17 16.01L113.58 16.01Q113.56 15 113.31 14.41Q113.06 13.82 112.62 13.56Q112.19 13.30 111.62 13.30L111.62 13.30Q110.56 13.30 109.96 14.05Q109.36 14.81 109.17 16.01ZM118.26 24L118.26 22.44Q118.94 22.44 119.24 22.18Q119.54 21.91 119.61 21.42Q119.68 20.93 119.68 20.30L119.68 20.30L119.68 10.44Q119.68 10.01 119.70 9.44Q119.73 8.88 119.78 8.35L119.78 8.35Q119.39 8.38 118.88 8.39Q118.36 8.40 118.10 8.42L118.10 8.42L118.10 6.60Q119.22 6.60 119.98 6.48Q120.74 6.36 121.18 6.19Q121.62 6.02 121.79 5.88L121.79 5.88L123.09 5.88L123.09 20.14Q123.09 20.47 123.06 21.08Q123.04 21.70 122.99 22.25L122.99 22.25Q123.40 22.20 123.86 22.19Q124.31 22.18 124.55 22.18L124.55 22.18L124.55 24L118.26 24ZM125.75 24L125.75 22.44Q126.42 22.44 126.72 22.18Q127.02 21.91 127.10 21.42Q127.17 20.93 127.17 20.30L127.17 20.30L127.17 10.44Q127.17 10.01 127.19 9.44Q127.22 8.88 127.26 8.35L127.26 8.35Q126.88 8.38 126.36 8.39Q125.85 8.40 125.58 8.42L125.58 8.42L125.58 6.60Q126.71 6.60 127.47 6.48Q128.22 6.36 128.67 6.19Q129.11 6.02 129.28 5.88L129.28 5.88L130.58 5.88L130.58 20.14Q130.58 20.47 130.55 21.08Q130.53 21.70 130.48 22.25L130.48 22.25Q130.89 22.20 131.34 22.19Q131.80 22.18 132.04 22.18L132.04 22.18L132.04 24L125.75 24Z" fill="#0E4446"/>
  <!-- Partners text (Source Sans 3 Light, converted to paths) -->
  <path d="M150.86 24L149.94 24L149.94 10.82L153.26 10.82Q154.76 10.82 155.82 11.17Q156.88 11.52 157.46 12.33Q158.04 13.14 158.04 14.50L158.04 14.50Q158.04 15.78 157.48 16.63Q156.92 17.48 155.87 17.91Q154.82 18.34 153.34 18.34L153.34 18.34L150.86 18.34L150.86 24ZM150.86 11.60L150.86 17.56L153.12 17.56Q155.14 17.56 156.12 16.83Q157.10 16.10 157.10 14.50L157.10 14.50Q157.10 12.84 156.09 12.22Q155.08 11.60 153.04 11.60L153.04 11.60L150.86 11.60ZM162.92 24.24L162.92 24.24Q162.16 24.24 161.53 23.96Q160.90 23.68 160.52 23.09Q160.14 22.50 160.14 21.62L160.14 21.62Q160.14 20 161.64 19.17Q163.14 18.34 166.34 17.98L166.34 17.98Q166.34 17.24 166.17 16.54Q166 15.84 165.51 15.39Q165.02 14.94 164.06 14.94L164.06 14.94Q163.10 14.94 162.30 15.31Q161.50 15.68 161 16.02L161 16.02L160.60 15.40Q160.94 15.14 161.48 14.85Q162.02 14.56 162.71 14.36Q163.40 14.16 164.18 14.16L164.18 14.16Q165.30 14.16 165.97 14.66Q166.64 15.16 166.93 16Q167.22 16.84 167.22 17.86L167.22 17.86L167.22 24L166.46 24L166.38 22.76L166.32 22.76Q165.60 23.34 164.73 23.79Q163.86 24.24 162.92 24.24ZM163.08 23.46L163.08 23.46Q163.90 23.46 164.67 23.07Q165.44 22.68 166.34 21.92L166.34 21.92L166.34 18.68Q164.36 18.90 163.20 19.29Q162.04 19.68 161.54 20.24Q161.04 20.80 161.04 21.56L161.04 21.56Q161.04 22.58 161.65 23.02Q162.26 23.46 163.08 23.46ZM171.52 24L170.64 24L170.64 14.40L171.40 14.40L171.48 16.18L171.54 16.18Q172.00 15.30 172.69 14.73Q173.38 14.16 174.26 14.16L174.26 14.16Q174.52 14.16 174.75 14.20Q174.98 14.24 175.22 14.36L175.22 14.36L174.98 15.12Q174.78 15.06 174.61 15.03Q174.44 15 174.14 15L174.14 15Q173.50 15 172.79 15.55Q172.08 16.10 171.52 17.46L171.52 17.46L171.52 24ZM179.60 24.16L179.60 24.16Q178.20 24.16 177.70 23.36Q177.20 22.56 177.20 21.28L177.20 21.28L177.20 15.16L175.70 15.16L175.70 14.48L177.22 14.40L177.34 11.22L178.10 11.22L178.10 14.40L180.88 14.40L180.88 15.16L178.10 15.16L178.10 21.34Q178.10 22.26 178.42 22.83Q178.74 23.40 179.72 23.40L179.72 23.40Q180 23.40 180.29 23.33Q180.58 23.26 180.92 23.10L180.92 23.10L181.20 23.72Q180.82 23.92 180.40 24.04Q179.98 24.16 179.60 24.16ZM184.10 24L183.22 24L183.22 14.40L183.98 14.40L184.06 15.88L184.12 15.88Q184.86 15.14 185.65 14.65Q186.44 14.16 187.42 14.16L187.42 14.16Q188.92 14.16 189.62 15.07Q190.32 15.98 190.32 17.84L190.32 17.84L190.32 24L189.44 24L189.44 17.96Q189.44 16.42 188.93 15.69Q188.42 14.96 187.24 14.96L187.24 14.96Q186.38 14.96 185.69 15.41Q185 15.86 184.10 16.76L184.10 16.76L184.10 24ZM197.50 24.24L197.50 24.24Q196.26 24.24 195.26 23.64Q194.26 23.04 193.66 21.91Q193.06 20.78 193.06 19.22L193.06 19.22Q193.06 17.64 193.66 16.51Q194.26 15.38 195.21 14.77Q196.16 14.16 197.24 14.16L197.24 14.16Q198.38 14.16 199.21 14.68Q200.04 15.20 200.48 16.19Q200.92 17.18 200.92 18.60L200.92 18.60Q200.92 18.76 200.91 18.95Q200.90 19.14 200.86 19.34L200.86 19.34L193.60 19.34L193.60 18.58L200.08 18.58Q200.08 16.74 199.32 15.83Q198.56 14.92 197.26 14.92L197.26 14.92Q196.46 14.92 195.70 15.38Q194.94 15.84 194.45 16.79Q193.96 17.74 193.96 19.18L193.96 19.18Q193.96 20.50 194.44 21.47Q194.92 22.44 195.74 22.95Q196.56 23.46 197.58 23.46L197.58 23.46Q198.36 23.46 199.01 23.25Q199.66 23.04 200.16 22.68L200.16 22.68L200.52 23.30Q199.96 23.68 199.26 23.96Q198.56 24.24 197.50 24.24ZM204.40 24L203.52 24L203.52 14.40L204.28 14.40L204.36 16.18L204.42 16.18Q204.88 15.30 205.57 14.73Q206.26 14.16 207.14 14.16L207.14 14.16Q207.40 14.16 207.63 14.20Q207.86 14.24 208.10 14.36L208.10 14.36L207.86 15.12Q207.66 15.06 207.49 15.03Q207.32 15 207.02 15L207.02 15Q206.38 15 205.67 15.55Q204.96 16.10 204.40 17.46L204.40 17.46L204.40 24ZM212.18 24.24L212.18 24.24Q211.06 24.24 210.17 23.88Q209.28 23.52 208.66 22.90L208.66 22.90L209.14 22.34Q209.74 22.86 210.45 23.17Q211.16 23.48 212.24 23.48L212.24 23.48Q213.36 23.48 213.94 22.91Q214.52 22.34 214.52 21.58L214.52 21.58Q214.52 20.98 214.17 20.59Q213.82 20.20 213.28 19.93Q212.74 19.66 212.18 19.46L212.18 19.46Q211.44 19.20 210.76 18.87Q210.08 18.54 209.64 18.03Q209.20 17.52 209.20 16.72L209.20 16.72Q209.20 15.66 210.00 14.91Q210.80 14.16 212.28 14.16L212.28 14.16Q213.10 14.16 213.81 14.44Q214.52 14.72 215.04 15.16L215.04 15.16L214.56 15.70Q214.08 15.36 213.54 15.14Q213.00 14.92 212.26 14.92L212.26 14.92Q211.14 14.92 210.61 15.46Q210.08 16 210.08 16.66L210.08 16.66Q210.08 17.20 210.39 17.55Q210.70 17.90 211.20 18.14Q211.70 18.38 212.28 18.60L212.28 18.60Q213.04 18.90 213.77 19.22Q214.50 19.54 214.96 20.07Q215.42 20.60 215.42 21.54L215.42 21.54Q215.42 22.26 215.05 22.87Q214.68 23.48 213.95 23.86Q213.22 24.24 212.18 24.24Z" fill="#666666"/>
</svg>
